STARTFONT 2.1
FONT -sun-helmet-medium-i-normal--17-170-75-75-p-93-adobe-fontspecific
SIZE 17 75 75
FONTBOUNDINGBOX 20 20 -2 -4

STARTPROPERTIES 28
FOUNDRY "sun"
FAMILY_NAME "helmet"
WEIGHT_NAME "medium"
SLANT "i"
SETWIDTH_NAME "normal"
ADD_STYLE_NAME ""
PIXEL_SIZE 18
POINT_SIZE 170
RESOLUTION_X 75
RESOLUTION_Y 75
SPACING "p"
AVERAGE_WIDTH 93
CHARSET_REGISTRY "adobe"
CHARSET_ENCODING "fontspecific"
COPYRIGHT "© 1999 Sun Microsystems, Inc."
RAW_PIXELSIZE 1000
RAW_POINTSIZE 964
RAW_ASCENT 915
RAW_DESCENT 196
RAW_AVERAGE_WIDTH 5251
FACE_NAME "HelmetItalicalic5"
_XMBDFED_INFO "Edited with xmbdfed 2.4."
WEIGHT 10
X_HEIGHT -1
QUAD_WIDTH 9
DEFAULT_CHAR 4
FONT_DESCENT 4
FONT_ASCENT 16
ENDPROPERTIES

CHARS 202

STARTCHAR char32
ENCODING 32
SWIDTH 25 0
DWIDTH 5 0
BBX 0 0 0 0
BITMAP
ENDCHAR

STARTCHAR char33
ENCODING 33
SWIDTH 25 0
DWIDTH 5 0
BBX 5 14 1 -1
BITMAP
18
30
30
30
30
20
20
60
40
40
00
00
C0
80
ENDCHAR

STARTCHAR char34
ENCODING 34
SWIDTH 35 0
DWIDTH 7 0
BBX 6 5 2 8
BITMAP
24
48
D8
58
90
ENDCHAR

STARTCHAR char35
ENCODING 35
SWIDTH 50 0
DWIDTH 10 0
BBX 9 13 0 0
BITMAP
1100
1300
1200
1200
7F80
3200
2200
2600
FF00
2400
2400
2400
6400
ENDCHAR

STARTCHAR char36
ENCODING 36
SWIDTH 50 0
DWIDTH 10 0
BBX 9 16 0 -2
BITMAP
0200
0E00
3F80
3480
2480
2400
3C00
1E00
0F00
0980
C980
C980
F300
7E00
1000
1000
ENDCHAR

STARTCHAR char37
ENCODING 37
SWIDTH 24 0
DWIDTH 15 0
BBX 14 12 0 0
BITMAP
7C20
6640
C640
C680
C6B8
CD6C
7BCC
02CC
04CC
04CC
08C8
0870
ENDCHAR

STARTCHAR char38
ENCODING 38
SWIDTH 4 0
DWIDTH 11 0
BBX 10 12 0 0
BITMAP
0F00
1980
1980
1B00
0E00
3C00
6640
C2C0
C380
C180
6380
3CC0
ENDCHAR

STARTCHAR char39
ENCODING 39
SWIDTH 20 0
DWIDTH 4 0
BBX 3 5 2 8
BITMAP
20
40
E0
C0
80
ENDCHAR

STARTCHAR char40
ENCODING 40
SWIDTH 30 0
DWIDTH 6 0
BBX 6 16 1 -3
BITMAP
04
08
18
30
30
60
60
E0
C0
C0
C0
C0
C0
C0
40
60
ENDCHAR

STARTCHAR char41
ENCODING 41
SWIDTH 30 0
DWIDTH 6 0
BBX 6 16 -2 -3
BITMAP
08
08
0C
0C
0C
0C
0C
0C
0C
0C
18
18
30
30
60
40
ENDCHAR

STARTCHAR char42
ENCODING 42
SWIDTH 35 0
DWIDTH 7 0
BBX 5 6 2 7
BITMAP
30
A0
F8
60
D0
50
ENDCHAR

STARTCHAR char43
ENCODING 43
SWIDTH 9 0
DWIDTH 12 0
BBX 11 10 1 0
BITMAP
0C00
0C00
0C00
0C00
FFE0
0C00
0C00
0C00
0C00
0C00
ENDCHAR

STARTCHAR char44
ENCODING 44
SWIDTH 20 0
DWIDTH 4 0
BBX 3 5 -1 -3
BITMAP
20
60
60
40
80
ENDCHAR

STARTCHAR char45
ENCODING 45
SWIDTH 35 0
DWIDTH 7 0
BBX 5 2 1 3
BITMAP
F8
80
ENDCHAR

STARTCHAR char46
ENCODING 46
SWIDTH 20 0
DWIDTH 4 0
BBX 2 2 0 -1
BITMAP
C0
80
ENDCHAR

STARTCHAR char47
ENCODING 47
SWIDTH 30 0
DWIDTH 6 0
BBX 7 13 0 0
BITMAP
06
04
0C
08
18
10
10
20
20
60
40
C0
80
ENDCHAR

STARTCHAR char48
ENCODING 48
SWIDTH 50 0
DWIDTH 10 0
BBX 9 12 1 0
BITMAP
1E00
2300
6180
4180
C180
C180
C180
C300
C300
C600
6E00
3800
ENDCHAR

STARTCHAR char49
ENCODING 49
SWIDTH 50 0
DWIDTH 10 0
BBX 6 13 2 0
BITMAP
04
0C
3C
78
08
18
18
18
10
30
30
30
30
ENDCHAR

STARTCHAR char50
ENCODING 50
SWIDTH 50 0
DWIDTH 10 0
BBX 9 12 0 0
BITMAP
1E00
3180
2180
0180
0180
0300
0E00
1C00
3000
6000
4000
FE00
ENDCHAR

STARTCHAR char51
ENCODING 51
SWIDTH 50 0
DWIDTH 10 0
BBX 10 12 0 0
BITMAP
0F00
30C0
70C0
00C0
0380
0F00
0380
0180
C180
C180
6300
3E00
ENDCHAR

STARTCHAR char52
ENCODING 52
SWIDTH 50 0
DWIDTH 10 0
BBX 8 13 1 0
BITMAP
01
03
07
0F
1A
32
66
E6
C6
FF
0C
0C
0C
ENDCHAR

STARTCHAR char53
ENCODING 53
SWIDTH 50 0
DWIDTH 10 0
BBX 8 12 1 0
BITMAP
3F
20
20
60
5C
62
03
03
C3
C2
46
3C
ENDCHAR

STARTCHAR char54
ENCODING 54
SWIDTH 50 0
DWIDTH 10 0
BBX 9 12 1 0
BITMAP
1E00
3100
6180
6000
DC00
E200
C300
C300
C300
C200
6600
3C00
ENDCHAR

STARTCHAR char55
ENCODING 55
SWIDTH 50 0
DWIDTH 10 0
BBX 8 12 2 0
BITMAP
FF
02
06
0C
18
10
30
60
60
40
C0
C0
ENDCHAR

STARTCHAR char56
ENCODING 56
SWIDTH 50 0
DWIDTH 10 0
BBX 9 12 1 0
BITMAP
1E00
2180
6180
6180
3300
7E00
E300
C300
8300
C300
E600
7C00
ENDCHAR

STARTCHAR char57
ENCODING 57
SWIDTH 50 0
DWIDTH 10 0
BBX 9 12 1 0
BITMAP
3E00
6300
4180
4180
4180
4380
6780
3B00
0300
C600
CE00
7800
ENDCHAR

STARTCHAR char58
ENCODING 58
SWIDTH 25 0
DWIDTH 5 0
BBX 4 9 1 -1
BITMAP
20
40
00
00
00
00
00
C0
80
ENDCHAR

STARTCHAR char59
ENCODING 59
SWIDTH 25 0
DWIDTH 5 0
BBX 5 11 0 -3
BITMAP
10
20
00
00
00
00
60
60
60
40
80
ENDCHAR

STARTCHAR char60
ENCODING 60
SWIDTH 50 0
DWIDTH 10 0
BBX 9 9 0 0
BITMAP
0080
0300
0C00
7000
C000
7000
1C00
0300
0080
ENDCHAR

STARTCHAR char61
ENCODING 61
SWIDTH 9 0
DWIDTH 12 0
BBX 12 4 0 3
BITMAP
FFF0
0000
0000
FFF0
ENDCHAR

STARTCHAR char62
ENCODING 62
SWIDTH 50 0
DWIDTH 10 0
BBX 9 9 0 0
BITMAP
C000
7000
1C00
0300
0080
0300
0C00
7000
C000
ENDCHAR

STARTCHAR char63
ENCODING 63
SWIDTH 45 0
DWIDTH 9 0
BBX 8 13 2 -1
BITMAP
3C
47
83
03
06
1C
38
20
60
00
00
60
40
ENDCHAR

STARTCHAR char64
ENCODING 64
SWIDTH 44 0
DWIDTH 19 0
BBX 14 13 2 0
BITMAP
07C0
1860
3018
67A8
6CCC
D84C
D84C
D8C8
D990
6EE0
3018
1830
0FC0
ENDCHAR

STARTCHAR char65
ENCODING 65
SWIDTH 9 0
DWIDTH 12 0
BBX 11 12 -1 0
BITMAP
0180
0380
02C0
04C0
0CC0
0840
1840
3FC0
3060
6060
6060
4060
ENDCHAR

STARTCHAR char66
ENCODING 66
SWIDTH 9 0
DWIDTH 12 0
BBX 11 13 0 -1
BITMAP
3F80
30E0
3060
2060
60C0
7F80
60C0
40C0
40C0
C0C0
C380
FF00
8000
ENDCHAR

STARTCHAR char67
ENCODING 67
SWIDTH 14 0
DWIDTH 13 0
BBX 11 12 1 0
BITMAP
1F80
3040
6060
4000
C000
C000
C000
C000
C0C0
40C0
6180
1E00
ENDCHAR

STARTCHAR char68
ENCODING 68
SWIDTH 9 0
DWIDTH 12 0
BBX 11 12 0 0
BITMAP
3F80
30C0
2060
2060
6060
6060
6060
4040
40C0
C180
CF80
FE00
ENDCHAR

STARTCHAR char69
ENCODING 69
SWIDTH 50 0
DWIDTH 10 0
BBX 10 13 0 -1
BITMAP
3FC0
3000
3000
2000
2080
7F80
6000
6000
4000
4000
C180
FF80
8000
ENDCHAR

STARTCHAR char70
ENCODING 70
SWIDTH 45 0
DWIDTH 9 0
BBX 10 12 0 0
BITMAP
3FC0
3000
3000
3000
6080
7F80
6000
6000
4000
C000
C000
C000
ENDCHAR

STARTCHAR char71
ENCODING 71
SWIDTH 19 0
DWIDTH 14 0
BBX 12 12 0 0
BITMAP
0FE0
3870
3030
6000
E000
C010
C3F0
C230
C020
6060
30E0
1F60
ENDCHAR

STARTCHAR char72
ENCODING 72
SWIDTH 9 0
DWIDTH 12 0
BBX 12 12 0 0
BITMAP
3030
3030
3030
2060
6060
7FE0
6060
4040
C0C0
C0C0
C0C0
C080
ENDCHAR

STARTCHAR char73
ENCODING 73
SWIDTH 20 0
DWIDTH 4 0
BBX 5 12 0 0
BITMAP
18
10
30
30
30
20
60
60
60
60
C0
40
ENDCHAR

STARTCHAR char74
ENCODING 74
SWIDTH 45 0
DWIDTH 9 0
BBX 9 12 0 0
BITMAP
0180
0180
0180
0100
0300
0300
0300
0200
C600
C600
CE00
7800
ENDCHAR

STARTCHAR char75
ENCODING 75
SWIDTH 4 0
DWIDTH 11 0
BBX 12 12 0 0
BITMAP
3060
31C0
3300
2600
6C00
7C00
7600
6600
C300
C180
C180
C0C0
ENDCHAR

STARTCHAR char76
ENCODING 76
SWIDTH 50 0
DWIDTH 10 0
BBX 9 13 0 -1
BITMAP
3000
3000
3000
3000
2000
6000
6000
6000
6000
4000
C080
FF00
8000
ENDCHAR

STARTCHAR char77
ENCODING 77
SWIDTH 19 0
DWIDTH 14 0
BBX 14 12 0 0
BITMAP
380C
381C
383C
6828
6878
6858
4CD8
4D98
CD30
CF30
CE30
8630
ENDCHAR

STARTCHAR char78
ENCODING 78
SWIDTH 9 0
DWIDTH 12 0
BBX 12 12 0 0
BITMAP
3030
3830
2820
2C60
6460
6660
6640
4240
C3C0
C1C0
C1C0
C180
ENDCHAR

STARTCHAR char79
ENCODING 79
SWIDTH 14 0
DWIDTH 13 0
BBX 13 12 0 0
BITMAP
0FC0
3870
3038
6018
E018
C018
C018
C030
C030
6060
70C0
3F00
ENDCHAR

STARTCHAR char80
ENCODING 80
SWIDTH 4 0
DWIDTH 11 0
BBX 11 12 0 0
BITMAP
3F80
30C0
3060
2060
60E0
71C0
7F80
6000
4000
C000
C000
C000
ENDCHAR

STARTCHAR char81
ENCODING 81
SWIDTH 14 0
DWIDTH 13 0
BBX 13 14 0 -2
BITMAP
1FC0
3870
7038
6018
E018
C018
C018
C030
C030
6360
71C0
3FC0
0060
0020
ENDCHAR

STARTCHAR char82
ENCODING 82
SWIDTH 9 0
DWIDTH 12 0
BBX 11 12 0 0
BITMAP
3FC0
3060
3060
2060
60C0
7F80
6180
40C0
C0C0
C0C0
C0C0
C0C0
ENDCHAR

STARTCHAR char83
ENCODING 83
SWIDTH 4 0
DWIDTH 11 0
BBX 10 12 0 0
BITMAP
1F80
30C0
6040
7000
3800
1F00
0780
01C0
C0C0
C0C0
6380
3F00
ENDCHAR

STARTCHAR char84
ENCODING 84
SWIDTH 45 0
DWIDTH 9 0
BBX 10 12 1 0
BITMAP
7F80
8C00
0C00
1800
1800
1800
1800
1000
3000
3000
3000
3000
ENDCHAR

STARTCHAR char85
ENCODING 85
SWIDTH 9 0
DWIDTH 12 0
BBX 12 12 0 0
BITMAP
3020
3030
2060
6060
6060
6040
E040
C0C0
C0C0
C080
6180
3E00
ENDCHAR

STARTCHAR char86
ENCODING 86
SWIDTH 4 0
DWIDTH 11 0
BBX 11 12 1 0
BITMAP
4040
60C0
60C0
6180
6180
2300
2300
3600
3600
3C00
3800
1800
ENDCHAR

STARTCHAR char87
ENCODING 87
SWIDTH 24 0
DWIDTH 15 0
BBX 15 12 1 0
BITMAP
E186
E286
E28C
E6CC
64D8
6CD8
68D0
78F0
78E0
70E0
70E0
60C0
ENDCHAR

STARTCHAR char88
ENCODING 88
SWIDTH 4 0
DWIDTH 11 0
BBX 12 12 -1 0
BITMAP
1860
18E0
0CC0
0D80
0700
0600
0E00
1B00
3900
3180
6180
40C0
ENDCHAR

STARTCHAR char89
ENCODING 89
SWIDTH 4 0
DWIDTH 11 0
BBX 11 12 1 0
BITMAP
60C0
60C0
6180
3300
3700
1600
1C00
1800
1800
1800
3000
1000
ENDCHAR

STARTCHAR char90
ENCODING 90
SWIDTH 4 0
DWIDTH 11 0
BBX 11 14 0 -1
BITMAP
0020
3FC0
40C0
0180
0300
0600
0C00
1C00
3800
7000
6000
C080
FF80
8000
ENDCHAR

STARTCHAR char91
ENCODING 91
SWIDTH 40 0
DWIDTH 8 0
BBX 8 16 1 -4
BITMAP
0F
18
18
10
10
30
30
20
60
60
60
40
C0
C8
F0
80
ENDCHAR

STARTCHAR char92
ENCODING 92
SWIDTH 25 0
DWIDTH 5 0
BBX 5 13 0 0
BITMAP
80
80
40
40
40
20
20
20
10
10
10
08
08
ENDCHAR

STARTCHAR char93
ENCODING 93
SWIDTH 40 0
DWIDTH 8 0
BBX 9 17 -2 -4
BITMAP
0080
0F00
0B00
0300
0300
0200
0600
0600
0600
0400
0C00
0C00
0800
1800
1800
F800
8000
ENDCHAR

STARTCHAR char94
ENCODING 94
SWIDTH 0 0
DWIDTH 0 0
BBX 5 2 -1 14
BITMAP
38
48
ENDCHAR

STARTCHAR char95
ENCODING 95
SWIDTH 4 0
DWIDTH 11 0
BBX 10 1 0 -2
BITMAP
FFC0
ENDCHAR

STARTCHAR char96
ENCODING 96
SWIDTH 0 0
DWIDTH 0 0
BBX 4 2 -1 10
BITMAP
E0
20
ENDCHAR

STARTCHAR char97
ENCODING 97
SWIDTH 45 0
DWIDTH 9 0
BBX 8 9 0 0
BITMAP
1E
63
03
1F
7E
C2
C2
C6
7B
ENDCHAR

STARTCHAR char98
ENCODING 98
SWIDTH 50 0
DWIDTH 10 0
BBX 9 12 0 0
BITMAP
3000
3000
3000
2E00
3100
6180
6180
4180
4180
C300
E700
BE00
ENDCHAR

STARTCHAR char99
ENCODING 99
SWIDTH 45 0
DWIDTH 9 0
BBX 9 9 0 0
BITMAP
3E00
7180
6180
C000
C000
C000
C300
6600
3C00
ENDCHAR

STARTCHAR char100
ENCODING 100
SWIDTH 50 0
DWIDTH 10 0
BBX 10 12 0 0
BITMAP
00C0
00C0
00C0
3E80
7380
6180
C180
C100
C100
C300
6700
3B00
ENDCHAR

STARTCHAR char101
ENCODING 101
SWIDTH 50 0
DWIDTH 10 0
BBX 9 9 0 0
BITMAP
3E00
7100
6180
C180
FF80
C000
C300
6700
3C00
ENDCHAR

STARTCHAR char102
ENCODING 102
SWIDTH 25 0
DWIDTH 5 0
BBX 5 13 1 0
BITMAP
08
38
20
20
F8
60
60
40
40
C0
C0
C0
80
ENDCHAR

STARTCHAR char103
ENCODING 103
SWIDTH 50 0
DWIDTH 10 0
BBX 9 12 0 -3
BITMAP
3E80
6380
E180
C180
C100
C100
C300
6700
3B00
C200
C600
7C00
ENDCHAR

STARTCHAR char104
ENCODING 104
SWIDTH 50 0
DWIDTH 10 0
BBX 9 12 0 0
BITMAP
3000
3000
3000
2F00
3180
6100
6100
6300
4300
C300
C200
C200
ENDCHAR

STARTCHAR char105
ENCODING 105
SWIDTH 20 0
DWIDTH 4 0
BBX 5 12 0 0
BITMAP
10
10
00
30
20
20
60
60
60
40
C0
40
ENDCHAR

STARTCHAR char106
ENCODING 106
SWIDTH 20 0
DWIDTH 4 0
BBX 6 15 -2 -3
BITMAP
0C
08
00
08
18
18
18
18
10
30
30
30
20
60
E0
ENDCHAR

STARTCHAR char107
ENCODING 107
SWIDTH 45 0
DWIDTH 9 0
BBX 8 12 0 0
BITMAP
30
30
30
23
66
6C
78
7C
4C
C6
C6
C6
ENDCHAR

STARTCHAR char108
ENCODING 108
SWIDTH 20 0
DWIDTH 4 0
BBX 5 12 0 0
BITMAP
10
30
30
30
30
20
60
60
60
40
C0
40
ENDCHAR

STARTCHAR char109
ENCODING 109
SWIDTH 24 0
DWIDTH 15 0
BBX 14 9 0 0
BITMAP
6F78
738C
630C
631C
4318
C218
C618
C618
8610
ENDCHAR

STARTCHAR char110
ENCODING 110
SWIDTH 50 0
DWIDTH 10 0
BBX 9 9 0 0
BITMAP
2F00
7180
6180
6180
4300
4300
C300
C300
C200
ENDCHAR

STARTCHAR char111
ENCODING 111
SWIDTH 50 0
DWIDTH 10 0
BBX 9 9 0 0
BITMAP
3E00
7100
6180
C180
C180
C180
C100
6300
3C00
ENDCHAR

STARTCHAR char112
ENCODING 112
SWIDTH 50 0
DWIDTH 10 0
BBX 10 12 -1 -3
BITMAP
1700
3880
30C0
20C0
20C0
60C0
6180
7380
4E00
4000
C000
C000
ENDCHAR

STARTCHAR char113
ENCODING 113
SWIDTH 50 0
DWIDTH 10 0
BBX 10 12 0 -3
BITMAP
3EC0
7380
6180
C180
C180
C100
C300
6700
3B00
0200
0200
0200
ENDCHAR

STARTCHAR char114
ENCODING 114
SWIDTH 30 0
DWIDTH 6 0
BBX 7 10 0 0
BITMAP
02
2C
30
60
60
60
40
40
C0
C0
ENDCHAR

STARTCHAR char115
ENCODING 115
SWIDTH 45 0
DWIDTH 9 0
BBX 8 9 0 0
BITMAP
3E
63
61
78
1E
07
C3
47
3C
ENDCHAR

STARTCHAR char116
ENCODING 116
SWIDTH 25 0
DWIDTH 5 0
BBX 4 12 1 0
BITMAP
20
20
60
F0
60
40
C0
C0
C0
80
C0
E0
ENDCHAR

STARTCHAR char117
ENCODING 117
SWIDTH 50 0
DWIDTH 10 0
BBX 9 9 0 0
BITMAP
3180
6180
6180
6180
E100
C300
C300
C700
7A00
ENDCHAR

STARTCHAR char118
ENCODING 118
SWIDTH 40 0
DWIDTH 8 0
BBX 8 9 1 0
BITMAP
82
86
C6
CC
D8
D8
50
70
60
ENDCHAR

STARTCHAR char119
ENCODING 119
SWIDTH 14 0
DWIDTH 13 0
BBX 13 9 0 0
BITMAP
C318
4738
4730
4F60
6B60
7B40
73C0
7380
6380
ENDCHAR

STARTCHAR char120
ENCODING 120
SWIDTH 45 0
DWIDTH 9 0
BBX 8 9 0 0
BITMAP
63
27
36
1C
18
38
6C
C4
86
ENDCHAR

STARTCHAR char121
ENCODING 121
SWIDTH 40 0
DWIDTH 8 0
BBX 9 13 0 -4
BITMAP
6180
6300
6300
6600
2600
2C00
2800
3800
3000
3000
6000
C000
8000
ENDCHAR

STARTCHAR char122
ENCODING 122
SWIDTH 40 0
DWIDTH 8 0
BBX 8 9 0 0
BITMAP
7F
06
0C
0C
18
30
60
C0
FE
ENDCHAR

STARTCHAR char123
ENCODING 123
SWIDTH 30 0
DWIDTH 6 0
BBX 4 15 1 -3
BITMAP
70
60
60
60
60
60
40
80
40
40
60
60
60
60
30
ENDCHAR

STARTCHAR char124
ENCODING 124
SWIDTH 25 0
DWIDTH 5 0
BBX 2 13 1 0
BITMAP
C0
C0
C0
C0
C0
C0
C0
C0
C0
C0
C0
C0
C0
ENDCHAR

STARTCHAR char125
ENCODING 125
SWIDTH 30 0
DWIDTH 6 0
BBX 4 15 1 -3
BITMAP
C0
60
60
60
60
60
20
10
60
60
60
60
60
60
C0
ENDCHAR

STARTCHAR char126
ENCODING 126
SWIDTH 0 0
DWIDTH 0 0
BBX 6 2 -1 14
BITMAP
04
FC
ENDCHAR

STARTCHAR char128
ENCODING 128
SWIDTH 50 0
DWIDTH 10 0
BBX 10 12 1 0
BITMAP
07C0
1840
3000
6000
FF00
C000
FF00
C000
C000
6000
7100
1F00
ENDCHAR

STARTCHAR char130
ENCODING 130
SWIDTH 20 0
DWIDTH 4 0
BBX 3 5 0 -3
BITMAP
40
C0
C0
80
80
ENDCHAR

STARTCHAR char131
ENCODING 131
SWIDTH 0 0
DWIDTH 0 0
BBX 5 2 -1 14
BITMAP
38
48
ENDCHAR

STARTCHAR char132
ENCODING 132
SWIDTH 35 0
DWIDTH 7 0
BBX 6 5 -1 -3
BITMAP
64
6C
6C
48
90
ENDCHAR

STARTCHAR char133
ENCODING 133
SWIDTH 44 0
DWIDTH 19 0
BBX 14 1 2 0
BITMAP
C30C
ENDCHAR

STARTCHAR char134
ENCODING 134
SWIDTH 45 0
DWIDTH 9 0
BBX 8 15 1 -2
BITMAP
0C
0C
08
09
FF
98
18
10
30
30
30
30
20
60
60
ENDCHAR

STARTCHAR char136
ENCODING 136
SWIDTH 0 0
DWIDTH 0 0
BBX 6 2 -2 10
BITMAP
38
6C
ENDCHAR

STARTCHAR char138
ENCODING 138
SWIDTH 39 0
DWIDTH 18 0
BBX 0 0 0 0
BITMAP
ENDCHAR

STARTCHAR char139
ENCODING 139
SWIDTH 30 0
DWIDTH 6 0
BBX 2 6 2 2
BITMAP
40
40
80
80
C0
40
ENDCHAR

STARTCHAR char140
ENCODING 140
SWIDTH 44 0
DWIDTH 19 0
BBX 18 12 0 0
BITMAP
1FFFC0
387000
703000
602000
C06080
C07F80
C06000
C04000
C0C000
E0C000
79FF80
3EFF00
ENDCHAR

STARTCHAR char141
ENCODING 141
SWIDTH 39 0
DWIDTH 18 0
BBX 0 0 0 0
BITMAP
ENDCHAR

STARTCHAR char145
ENCODING 145
SWIDTH 20 0
DWIDTH 4 0
BBX 3 4 2 8
BITMAP
60
E0
C0
80
ENDCHAR

STARTCHAR char146
ENCODING 146
SWIDTH 20 0
DWIDTH 4 0
BBX 3 5 2 8
BITMAP
20
40
40
40
80
ENDCHAR

STARTCHAR char147
ENCODING 147
SWIDTH 35 0
DWIDTH 7 0
BBX 6 4 2 8
BITMAP
E8
B4
D8
90
ENDCHAR

STARTCHAR char148
ENCODING 148
SWIDTH 35 0
DWIDTH 7 0
BBX 6 5 2 8
BITMAP
24
48
D8
58
90
ENDCHAR

STARTCHAR char149
ENCODING 149
SWIDTH 30 0
DWIDTH 6 0
BBX 5 5 0 4
BITMAP
70
F8
F8
F8
70
ENDCHAR

STARTCHAR char150
ENCODING 150
SWIDTH 50 0
DWIDTH 10 0
BBX 9 2 0 3
BITMAP
7F80
E000
ENDCHAR

STARTCHAR char151
ENCODING 151
SWIDTH 9 0
DWIDTH 12 0
BBX 12 1 0 5
BITMAP
FFF0
ENDCHAR

STARTCHAR char152
ENCODING 152
SWIDTH 0 0
DWIDTH 0 0
BBX 6 2 -1 10
BITMAP
EC
98
ENDCHAR

STARTCHAR char153
ENCODING 153
SWIDTH 29 0
DWIDTH 16 0
BBX 15 6 0 5
BITMAP
FD0C
918C
3194
315C
316C
732E
ENDCHAR

STARTCHAR char155
ENCODING 155
SWIDTH 30 0
DWIDTH 6 0
BBX 2 6 2 2
BITMAP
80
80
40
40
C0
80
ENDCHAR

STARTCHAR char156
ENCODING 156
SWIDTH 29 0
DWIDTH 16 0
BBX 15 10 0 0
BITMAP
0800
3E78
63CC
4186
C186
C1FE
C300
C30C
679C
3CF8
ENDCHAR

STARTCHAR char157
ENCODING 157
SWIDTH 39 0
DWIDTH 18 0
BBX 0 0 0 0
BITMAP
ENDCHAR

STARTCHAR char159
ENCODING 159
SWIDTH 4 0
DWIDTH 11 0
BBX 11 15 1 0
BITMAP
1B00
1200
E060
60C0
6180
2180
3300
3600
1400
1C00
1800
1800
1800
3000
1000
ENDCHAR

STARTCHAR char160
ENCODING 160
SWIDTH 25 0
DWIDTH 5 0
BBX 0 0 0 0
BITMAP
ENDCHAR

STARTCHAR char161
ENCODING 161
SWIDTH 25 0
DWIDTH 5 0
BBX 5 12 0 0
BITMAP
18
10
00
30
20
20
60
60
60
40
C0
C0
ENDCHAR

STARTCHAR char162
ENCODING 162
SWIDTH 45 0
DWIDTH 9 0
BBX 9 13 0 -2
BITMAP
0200
0400
3F00
7580
6D80
C800
C800
C800
DB00
7600
3C00
1000
2000
ENDCHAR

STARTCHAR char163
ENCODING 163
SWIDTH 50 0
DWIDTH 10 0
BBX 10 13 0 0
BITMAP
0F00
1980
30C0
30C0
3000
3000
7E00
3000
1000
3000
2000
FD80
4F00
ENDCHAR

STARTCHAR char164
ENCODING 164
SWIDTH 0 0
DWIDTH 0 0
BBX 4 2 1 14
BITMAP
60
C0
ENDCHAR

STARTCHAR char165
ENCODING 165
SWIDTH 0 0
DWIDTH 0 0
BBX 5 2 0 14
BITMAP
98
60
ENDCHAR

STARTCHAR char166
ENCODING 166
SWIDTH 39 0
DWIDTH 18 0
BBX 0 0 0 0
BITMAP
ENDCHAR

STARTCHAR char167
ENCODING 167
SWIDTH 50 0
DWIDTH 10 0
BBX 9 15 0 -3
BITMAP
1F00
3180
3180
3800
6C00
6700
6300
2180
3180
1B80
0F00
0600
E600
6E00
3800
ENDCHAR

STARTCHAR char168
ENCODING 168
SWIDTH 0 0
DWIDTH 0 0
BBX 5 2 -1 10
BITMAP
D8
90
ENDCHAR

STARTCHAR char169
ENCODING 169
SWIDTH 19 0
DWIDTH 14 0
BBX 13 12 0 0
BITMAP
0780
1840
2020
4790
4858
D818
D818
D818
48D0
6710
3060
0F80
ENDCHAR

STARTCHAR char170
ENCODING 170
SWIDTH 0 0
DWIDTH 0 0
BBX 6 2 -1 13
BITMAP
48
88
ENDCHAR

STARTCHAR char171
ENCODING 171
SWIDTH 40 0
DWIDTH 8 0
BBX 7 6 1 2
BITMAP
22
66
DC
98
C8
44
ENDCHAR

STARTCHAR char172
ENCODING 172
SWIDTH 14 0
DWIDTH 13 0
BBX 12 5 0 0
BITMAP
FFF0
0030
0030
0030
0030
ENDCHAR

STARTCHAR char174
ENCODING 174
SWIDTH 19 0
DWIDTH 14 0
BBX 13 12 0 0
BITMAP
0780
1840
2F20
4CD0
4CD8
C9D8
CF18
CD18
4D90
4ED0
3060
0F80
ENDCHAR

STARTCHAR char176
ENCODING 176
SWIDTH 25 0
DWIDTH 5 0
BBX 6 6 1 6
BITMAP
30
48
CC
CC
48
30
ENDCHAR

STARTCHAR char177
ENCODING 177
SWIDTH 50 0
DWIDTH 10 0
BBX 9 11 0 0
BITMAP
0C00
0C00
0C00
0C00
FF80
0C00
0C00
0C00
0C00
0000
FF80
ENDCHAR

STARTCHAR char179
ENCODING 179
SWIDTH 39 0
DWIDTH 18 0
BBX 0 0 0 0
BITMAP
ENDCHAR

STARTCHAR char180
ENCODING 180
SWIDTH 0 0
DWIDTH 0 0
BBX 4 2 0 10
BITMAP
70
40
ENDCHAR

STARTCHAR char182
ENCODING 182
SWIDTH 14 0
DWIDTH 13 0
BBX 8 15 2 -3
BITMAP
7F
F6
F6
F6
F6
76
36
36
36
36
36
36
36
36
36
ENDCHAR

STARTCHAR char183
ENCODING 183
SWIDTH 15 0
DWIDTH 3 0
BBX 2 2 2 4
BITMAP
C0
C0
ENDCHAR

STARTCHAR char184
ENCODING 184
SWIDTH 0 0
DWIDTH 0 0
BBX 3 3 -2 -4
BITMAP
40
40
40
ENDCHAR

STARTCHAR char186
ENCODING 186
SWIDTH 0 0
DWIDTH 0 0
BBX 6 2 -1 14
BITMAP
04
FC
ENDCHAR

STARTCHAR char187
ENCODING 187
SWIDTH 40 0
DWIDTH 8 0
BBX 7 6 0 2
BITMAP
44
66
32
36
CC
88
ENDCHAR

STARTCHAR char189
ENCODING 189
SWIDTH 39 0
DWIDTH 18 0
BBX 0 0 0 0
BITMAP
ENDCHAR

STARTCHAR char191
ENCODING 191
SWIDTH 45 0
DWIDTH 9 0
BBX 8 12 0 0
BITMAP
06
04
00
0C
18
30
60
C0
C3
C2
66
3C
ENDCHAR

STARTCHAR char192
ENCODING 192
SWIDTH 9 0
DWIDTH 12 0
BBX 11 16 -1 0
BITMAP
0300
0180
0000
0180
0380
0380
06C0
04C0
0CC0
0840
1840
3FC0
3060
6060
6060
4060
ENDCHAR

STARTCHAR char193
ENCODING 193
SWIDTH 9 0
DWIDTH 12 0
BBX 11 16 -1 0
BITMAP
00C0
0180
0000
0180
0380
0380
06C0
04C0
0CC0
0840
1840
3FC0
3060
6060
6060
4060
ENDCHAR

STARTCHAR char194
ENCODING 194
SWIDTH 9 0
DWIDTH 12 0
BBX 11 16 -1 0
BITMAP
01C0
0240
0000
0180
0380
0380
06C0
04C0
0CC0
0840
1840
3FC0
3060
6060
6060
4060
ENDCHAR

STARTCHAR char195
ENCODING 195
SWIDTH 9 0
DWIDTH 12 0
BBX 11 16 -1 0
BITMAP
0020
07E0
0000
0180
0380
0380
06C0
06C0
0CC0
0840
1840
3FC0
3060
6060
6060
4060
ENDCHAR

STARTCHAR char196
ENCODING 196
SWIDTH 9 0
DWIDTH 12 0
BBX 11 15 -1 0
BITMAP
0360
0240
0180
0380
0380
06C0
04C0
0CC0
0840
1840
3FC0
3060
6060
6060
4060
ENDCHAR

STARTCHAR char197
ENCODING 197
SWIDTH 9 0
DWIDTH 12 0
BBX 11 16 -1 0
BITMAP
03E0
0360
03E0
0380
0380
0780
06C0
0CC0
0CC0
1840
1840
3FC0
3060
6060
6060
4060
ENDCHAR

STARTCHAR char198
ENCODING 198
SWIDTH 34 0
DWIDTH 17 0
BBX 16 13 0 -1
BITMAP
03FF
06C0
04C0
0CC0
08C2
18FE
3180
3F80
6180
4180
C102
83FC
0200
ENDCHAR

STARTCHAR char199
ENCODING 199
SWIDTH 14 0
DWIDTH 13 0
BBX 11 16 1 -4
BITMAP
1F80
3040
6060
4000
C000
C000
C000
C000
C0C0
40C0
6180
1E00
0000
1800
0800
1000
ENDCHAR

STARTCHAR char200
ENCODING 200
SWIDTH 50 0
DWIDTH 10 0
BBX 10 17 0 -1
BITMAP
0C00
0600
0000
0000
3FC0
3000
3000
2000
2080
7F80
6000
6000
4000
4000
C180
FF80
8000
ENDCHAR

STARTCHAR char201
ENCODING 201
SWIDTH 50 0
DWIDTH 10 0
BBX 10 17 0 -1
BITMAP
0380
0300
0000
0000
3FC0
3000
3000
2000
2080
7F80
6000
6000
4000
4000
C180
FF80
8000
ENDCHAR

STARTCHAR char202
ENCODING 202
SWIDTH 50 0
DWIDTH 10 0
BBX 10 17 0 -1
BITMAP
0700
0D80
0000
0000
3FC0
3000
3000
2000
2080
7F80
6000
6000
4000
4000
C180
FF80
8000
ENDCHAR

STARTCHAR char203
ENCODING 203
SWIDTH 50 0
DWIDTH 10 0
BBX 10 16 0 -1
BITMAP
0D80
0900
0000
3FC0
3000
3000
2000
2080
7F80
6000
6000
4000
4000
C180
FF80
8000
ENDCHAR

STARTCHAR char204
ENCODING 204
SWIDTH 20 0
DWIDTH 4 0
BBX 5 16 0 0
BITMAP
70
10
00
18
18
30
30
30
30
20
60
60
60
60
C0
40
ENDCHAR

STARTCHAR char205
ENCODING 205
SWIDTH 20 0
DWIDTH 4 0
BBX 7 16 0 0
BITMAP
0C
18
00
18
18
30
30
30
30
20
60
60
60
60
C0
40
ENDCHAR

STARTCHAR char206
ENCODING 206
SWIDTH 20 0
DWIDTH 4 0
BBX 6 16 0 0
BITMAP
18
24
00
18
10
30
30
30
30
20
60
60
60
60
C0
40
ENDCHAR

STARTCHAR char207
ENCODING 207
SWIDTH 20 0
DWIDTH 4 0
BBX 6 15 0 0
BITMAP
64
48
18
18
30
30
30
30
20
60
60
60
60
C0
40
ENDCHAR

STARTCHAR char209
ENCODING 209
SWIDTH 9 0
DWIDTH 12 0
BBX 12 16 0 0
BITMAP
0240
0DC0
0000
3030
3830
3830
2820
2C60
6460
6660
6660
4340
C3C0
C1C0
C1C0
C180
ENDCHAR

STARTCHAR char210
ENCODING 210
SWIDTH 14 0
DWIDTH 13 0
BBX 13 16 0 0
BITMAP
0700
0100
0000
0000
0FC0
3870
3038
6018
E018
C018
C018
C030
C030
6060
70C0
3F00
ENDCHAR

STARTCHAR char211
ENCODING 211
SWIDTH 14 0
DWIDTH 13 0
BBX 13 16 0 0
BITMAP
00C0
0180
0000
0000
0FC0
3870
3038
6018
E018
C018
C018
C030
C030
6060
70C0
3F00
ENDCHAR

STARTCHAR char212
ENCODING 212
SWIDTH 14 0
DWIDTH 13 0
BBX 13 16 0 0
BITMAP
0180
0240
0000
0000
0FC0
3870
3038
6018
E018
C018
C018
C030
C030
6060
70C0
3F00
ENDCHAR

STARTCHAR char213
ENCODING 213
SWIDTH 14 0
DWIDTH 13 0
BBX 13 16 0 0
BITMAP
0020
07E0
0000
0000
0FC0
3870
3038
6018
C018
C018
C018
C030
C030
6060
70C0
3F00
ENDCHAR

STARTCHAR char214
ENCODING 214
SWIDTH 14 0
DWIDTH 13 0
BBX 13 15 0 0
BITMAP
0260
0240
0000
0FC0
3870
3038
6018
C018
C018
C018
C030
C030
6060
70C0
3F00
ENDCHAR

STARTCHAR char216
ENCODING 216
SWIDTH 14 0
DWIDTH 13 0
BBX 13 14 0 -1
BITMAP
0008
0FD0
3830
3078
6098
4118
C218
C418
C830
D020
6060
71C0
9F00
8000
ENDCHAR

STARTCHAR char217
ENCODING 217
SWIDTH 9 0
DWIDTH 12 0
BBX 12 16 0 0
BITMAP
0600
0300
0000
3030
3030
3020
2060
6060
6060
6040
E040
C0C0
C0C0
C080
6180
3E00
ENDCHAR

STARTCHAR char218
ENCODING 218
SWIDTH 9 0
DWIDTH 12 0
BBX 12 16 0 0
BITMAP
0180
0100
0000
3030
3030
3020
2060
6060
6060
6040
E040
C0C0
C0C0
C080
6180
3E00
ENDCHAR

STARTCHAR char219
ENCODING 219
SWIDTH 9 0
DWIDTH 12 0
BBX 12 16 0 0
BITMAP
0380
0480
0000
3030
3030
3020
2060
6060
6060
6040
E040
C0C0
C0C0
C080
6180
3E00
ENDCHAR

STARTCHAR char220
ENCODING 220
SWIDTH 9 0
DWIDTH 12 0
BBX 12 15 0 0
BITMAP
06C0
0480
3030
3030
3020
2060
6060
6060
6040
E040
C0C0
C0C0
C080
6180
3E00
ENDCHAR

STARTCHAR char222
ENCODING 222
SWIDTH 39 0
DWIDTH 18 0
BBX 0 0 0 0
BITMAP
ENDCHAR

STARTCHAR char223
ENCODING 223
SWIDTH 45 0
DWIDTH 9 0
BBX 9 12 0 0
BITMAP
0F00
3180
3180
2180
2B00
6E00
6300
4100
4300
4300
C600
DC00
ENDCHAR

STARTCHAR char224
ENCODING 224
SWIDTH 45 0
DWIDTH 9 0
BBX 8 13 0 0
BITMAP
18
0C
04
00
1E
63
03
1F
7E
C2
C2
C6
7B
ENDCHAR

STARTCHAR char225
ENCODING 225
SWIDTH 45 0
DWIDTH 9 0
BBX 8 12 0 0
BITMAP
03
04
00
1E
63
03
1F
7E
C2
C2
C6
7B
ENDCHAR

STARTCHAR char226
ENCODING 226
SWIDTH 45 0
DWIDTH 9 0
BBX 8 12 0 0
BITMAP
0E
1A
00
1E
63
03
1F
7E
C2
C2
C6
7B
ENDCHAR

STARTCHAR char227
ENCODING 227
SWIDTH 45 0
DWIDTH 9 0
BBX 9 12 0 0
BITMAP
0F80
1200
0000
1E00
6300
0300
1F00
7E00
C200
C200
C600
7B00
ENDCHAR

STARTCHAR char228
ENCODING 228
SWIDTH 45 0
DWIDTH 9 0
BBX 8 12 0 0
BITMAP
1B
12
00
1E
63
03
1F
7E
C2
C2
C6
7B
ENDCHAR

STARTCHAR char229
ENCODING 229
SWIDTH 45 0
DWIDTH 9 0
BBX 8 13 0 0
BITMAP
1E
1A
1E
00
1E
63
03
3F
62
C2
C6
C6
7B
ENDCHAR

STARTCHAR char230
ENCODING 230
SWIDTH 29 0
DWIDTH 16 0
BBX 14 10 0 0
BITMAP
0800
3E70
6388
030C
1F0C
7FFC
C200
C708
C718
79E0
ENDCHAR

STARTCHAR char231
ENCODING 231
SWIDTH 45 0
DWIDTH 9 0
BBX 9 13 0 -4
BITMAP
3E00
7180
6180
C000
C000
C000
C300
6600
3C00
0000
1000
1000
1000
ENDCHAR

STARTCHAR char232
ENCODING 232
SWIDTH 50 0
DWIDTH 10 0
BBX 9 13 0 0
BITMAP
1800
0C00
0600
0000
3E00
7100
6180
C180
FF80
C000
C300
6700
3C00
ENDCHAR

STARTCHAR char233
ENCODING 233
SWIDTH 50 0
DWIDTH 10 0
BBX 9 13 0 0
BITMAP
0380
0600
0400
0000
3E00
7100
6180
C180
FF80
C000
C300
6700
3C00
ENDCHAR

STARTCHAR char234
ENCODING 234
SWIDTH 50 0
DWIDTH 10 0
BBX 9 12 0 0
BITMAP
0E00
1B00
0000
3E00
7100
6180
C180
FF80
C000
C300
6700
3C00
ENDCHAR

STARTCHAR char235
ENCODING 235
SWIDTH 50 0
DWIDTH 10 0
BBX 9 12 0 0
BITMAP
1900
1200
0000
3E00
7100
6180
C180
FF80
C000
C300
6700
3C00
ENDCHAR

STARTCHAR char236
ENCODING 236
SWIDTH 20 0
DWIDTH 4 0
BBX 4 12 0 0
BITMAP
60
10
00
30
20
20
60
60
60
40
C0
40
ENDCHAR

STARTCHAR char237
ENCODING 237
SWIDTH 20 0
DWIDTH 4 0
BBX 6 12 0 0
BITMAP
18
30
00
30
20
20
60
60
60
40
C0
40
ENDCHAR

STARTCHAR char238
ENCODING 238
SWIDTH 20 0
DWIDTH 4 0
BBX 6 12 0 0
BITMAP
38
48
00
30
20
20
60
60
60
40
C0
40
ENDCHAR

STARTCHAR char239
ENCODING 239
SWIDTH 20 0
DWIDTH 4 0
BBX 6 12 0 0
BITMAP
4C
48
00
30
20
20
60
60
60
40
C0
40
ENDCHAR

STARTCHAR char241
ENCODING 241
SWIDTH 50 0
DWIDTH 10 0
BBX 9 12 0 0
BITMAP
1E80
1300
0000
2F00
3180
6180
6180
4300
4300
C300
C300
C200
ENDCHAR

STARTCHAR char242
ENCODING 242
SWIDTH 50 0
DWIDTH 10 0
BBX 9 13 0 0
BITMAP
1C00
0C00
0600
0000
3E00
7100
6180
C180
C180
C180
C100
6300
3C00
ENDCHAR

STARTCHAR char243
ENCODING 243
SWIDTH 50 0
DWIDTH 10 0
BBX 9 12 0 0
BITMAP
0300
0600
0000
3E00
7100
6180
C180
C180
C180
C100
6300
3C00
ENDCHAR

STARTCHAR char244
ENCODING 244
SWIDTH 50 0
DWIDTH 10 0
BBX 9 12 0 0
BITMAP
0600
0900
0000
3E00
7100
6180
C180
C180
C180
C100
6300
3C00
ENDCHAR

STARTCHAR char245
ENCODING 245
SWIDTH 50 0
DWIDTH 10 0
BBX 9 12 0 0
BITMAP
0E80
1B00
0000
3E00
7100
6180
C180
C180
C180
C100
6200
3C00
ENDCHAR

STARTCHAR char246
ENCODING 246
SWIDTH 50 0
DWIDTH 10 0
BBX 9 12 0 0
BITMAP
0900
0900
0000
3E00
7100
6180
C180
C180
C180
C100
7300
3C00
ENDCHAR

STARTCHAR char247
ENCODING 247
SWIDTH 50 0
DWIDTH 10 0
BBX 9 5 0 2
BITMAP
1800
0000
FF80
0000
1800
ENDCHAR

STARTCHAR char248
ENCODING 248
SWIDTH 50 0
DWIDTH 10 0
BBX 9 11 0 -1
BITMAP
0080
3E80
7180
6380
C580
C980
D180
E100
6300
BC00
8000
ENDCHAR

STARTCHAR char249
ENCODING 249
SWIDTH 50 0
DWIDTH 10 0
BBX 9 12 0 0
BITMAP
0C00
0600
0000
6180
6180
6180
6100
E100
C300
C300
C700
7A00
ENDCHAR

STARTCHAR char250
ENCODING 250
SWIDTH 50 0
DWIDTH 10 0
BBX 9 12 0 0
BITMAP
0300
0600
0000
6180
6180
6180
6100
E100
C300
C300
C700
7A00
ENDCHAR

STARTCHAR char251
ENCODING 251
SWIDTH 50 0
DWIDTH 10 0
BBX 9 12 0 0
BITMAP
0600
0B00
0000
6180
6180
6180
6100
E100
C300
C300
C700
7A00
ENDCHAR

STARTCHAR char252
ENCODING 252
SWIDTH 50 0
DWIDTH 10 0
BBX 9 12 0 0
BITMAP
0980
1100
0000
6180
6180
6180
6100
E100
C300
C300
E700
7A00
ENDCHAR

STARTCHAR char255
ENCODING 255
SWIDTH 40 0
DWIDTH 8 0
BBX 9 16 0 -4
BITMAP
1200
2200
0000
6180
6300
6300
6600
2400
2C00
2800
3800
3000
3000
6000
C000
8000
ENDCHAR
ENDFONT
